<svg xmlns="http://www.w3.org/2000/svg" xmlns:xlink="http://www.w3.org/1999/xlink" width="40" zoomAndPan="magnify" viewBox="0 0 30 44.999999" height="60" preserveAspectRatio="xMidYMid meet" version="1.0"><defs><clipPath id="4e56bf8c66"><path d="M 5 0 L 25 0 L 25 45 L 5 45 Z M 5 0 " clip-rule="nonzero"/></clipPath><clipPath id="7e82220aaf"><path d="M 1.761719 1.210938 L 24.867188 -1.351562 L 29.910156 44.121094 L 6.800781 46.683594 Z M 1.761719 1.210938 " clip-rule="nonzero"/></clipPath><clipPath id="a43ae6cd44"><path d="M 1.761719 1.210938 L 24.867188 -1.351562 L 29.910156 44.121094 L 6.800781 46.683594 Z M 1.761719 1.210938 " clip-rule="nonzero"/></clipPath><clipPath id="beb40f051a"><path d="M 13 6 L 17 6 L 17 14 L 13 14 Z M 13 6 " clip-rule="nonzero"/></clipPath><clipPath id="92a7a583c8"><path d="M 1.761719 1.210938 L 24.867188 -1.351562 L 29.910156 44.121094 L 6.800781 46.683594 Z M 1.761719 1.210938 " clip-rule="nonzero"/></clipPath><clipPath id="392884efbd"><path d="M 1.761719 1.210938 L 24.867188 -1.351562 L 29.910156 44.121094 L 6.800781 46.683594 Z M 1.761719 1.210938 " clip-rule="nonzero"/></clipPath><clipPath id="08499c2299"><path d="M 13 6 L 16 6 L 16 14 L 13 14 Z M 13 6 " clip-rule="nonzero"/></clipPath><clipPath id="75f7c3b14b"><path d="M 1.761719 1.210938 L 24.867188 -1.351562 L 29.910156 44.121094 L 6.800781 46.683594 Z M 1.761719 1.210938 " clip-rule="nonzero"/></clipPath><clipPath id="e8b6f520ca"><path d="M 1.761719 1.210938 L 24.867188 -1.351562 L 29.910156 44.121094 L 6.800781 46.683594 Z M 1.761719 1.210938 " clip-rule="nonzero"/></clipPath><clipPath id="a006a365f9"><path d="M 6 10 L 24 10 L 24 29 L 6 29 Z M 6 10 " clip-rule="nonzero"/></clipPath><clipPath id="e2ae94d804"><path d="M 1.761719 1.210938 L 24.867188 -1.351562 L 29.910156 44.121094 L 6.800781 46.683594 Z M 1.761719 1.210938 " clip-rule="nonzero"/></clipPath><clipPath id="53057f2cb8"><path d="M 1.761719 1.210938 L 24.867188 -1.351562 L 29.910156 44.121094 L 6.800781 46.683594 Z M 1.761719 1.210938 " clip-rule="nonzero"/></clipPath></defs><g clip-path="url(#4e56bf8c66)"><g clip-path="url(#7e82220aaf)"><g clip-path="url(#a43ae6cd44)"><path fill="#4173a4" d="M 14.585938 0.957031 C 23.996094 1.808594 26.546875 14.039062 23.886719 23.929688 C 21.597656 32.433594 22.050781 42.617188 16.839844 44.167969 C 9.996094 46.210938 6.105469 40.582031 7.261719 30.523438 C 8.03125 23.84375 6.226562 18.113281 5.523438 11.59375 C 4.855469 5.429688 8.46875 0.40625 14.585938 0.957031 Z M 14.585938 0.957031 " fill-opacity="1" fill-rule="nonzero"/></g></g></g><g clip-path="url(#beb40f051a)"><g clip-path="url(#92a7a583c8)"><g clip-path="url(#392884efbd)"><path fill="#000000" d="M 14.847656 6.171875 C 17.007812 6.300781 16.050781 11.027344 16.0625 12.523438 C 16.078125 14.015625 13.976562 14.191406 13.863281 11.988281 C 13.75 9.785156 12.234375 6.019531 14.847656 6.171875 Z M 14.847656 6.171875 " fill-opacity="1" fill-rule="nonzero"/></g></g></g><g clip-path="url(#08499c2299)"><g clip-path="url(#75f7c3b14b)"><g clip-path="url(#e8b6f520ca)"><path fill="#0e2650" d="M 14.847656 6.171875 C 17.007812 6.300781 15.386719 10.289062 15.402344 11.785156 C 15.417969 13.28125 14.835938 13.890625 14.472656 11.714844 C 14.128906 9.65625 12.234375 6.019531 14.847656 6.171875 Z M 14.847656 6.171875 " fill-opacity="1" fill-rule="nonzero"/></g></g></g><g clip-path="url(#a006a365f9)"><g clip-path="url(#e2ae94d804)"><g clip-path="url(#53057f2cb8)"><path fill="#000000" d="M 14.734375 10.167969 C 19.382812 10.554688 22.351562 13.941406 23.539062 18.554688 C 24.679688 22.984375 21.933594 28.671875 21.101562 28.726562 C 19.347656 28.832031 23.175781 22.550781 19.871094 18.085938 C 17.449219 14.816406 16.382812 15.789062 14.863281 13.820312 C 13.515625 15.460938 11.472656 14.5625 9.78125 17.488281 C 7.175781 22 11.34375 26.429688 10.109375 27.03125 C 9.160156 27.492188 5.351562 19.960938 7.082031 15.226562 C 8.742188 10.679688 14.734375 10.167969 14.734375 10.167969 Z M 14.734375 10.167969 " fill-opacity="1" fill-rule="nonzero"/><path fill="#0e2650" d="M 14.734375 10.167969 C 19.382812 10.554688 22.351562 13.941406 23.539062 18.554688 C 24.679688 22.984375 22.050781 28.425781 21.21875 28.484375 C 19.679688 28.597656 23.429688 22.476562 20.5 17.855469 C 18.320312 14.414062 15.898438 15.222656 14.847656 13.011719 C 13.488281 15.257812 10.570312 13.835938 9.113281 17.3125 C 7.101562 22.125 10.804688 26.324219 9.941406 26.824219 C 9.03125 27.355469 5.351562 19.960938 7.082031 15.226562 C 8.742188 10.679688 14.734375 10.167969 14.734375 10.167969 Z M 14.734375 10.167969 " fill-opacity="1" fill-rule="nonzero"/></g></g></g></svg>