<svg xmlns="http://www.w3.org/2000/svg" xmlns:xlink="http://www.w3.org/1999/xlink" width="100" zoomAndPan="magnify" viewBox="0 0 75 74.999997" height="100" preserveAspectRatio="xMidYMid meet" version="1.0"><defs><clipPath id="28db7de923"><path d="M 12.199219 3.226562 L 62.449219 3.226562 L 62.449219 71.476562 L 12.199219 71.476562 Z M 12.199219 3.226562 " clip-rule="nonzero"/></clipPath></defs><path fill="#242424" d="M 54.058594 56.457031 C 53.929688 54.824219 52.546875 53.546875 50.914062 53.546875 L 23.722656 53.546875 C 22.089844 53.546875 20.707031 54.824219 20.578125 56.457031 L 19.921875 64.59375 C 19.851562 65.472656 20.152344 66.347656 20.746094 66.996094 C 21.34375 67.644531 22.1875 68.015625 23.066406 68.015625 L 51.570312 68.015625 C 52.449219 68.015625 53.292969 67.644531 53.890625 66.996094 C 54.484375 66.347656 54.785156 65.472656 54.714844 64.59375 Z M 21.652344 56.542969 C 21.738281 55.472656 22.648438 54.628906 23.722656 54.628906 L 50.914062 54.628906 C 51.988281 54.628906 52.894531 55.472656 52.984375 56.542969 L 53.347656 61.089844 L 21.289062 61.089844 Z M 53.09375 66.261719 C 52.695312 66.691406 52.15625 66.929688 51.566406 66.929688 L 23.066406 66.929688 C 22.480469 66.929688 21.9375 66.691406 21.539062 66.261719 C 21.144531 65.828125 20.949219 65.265625 20.996094 64.679688 L 21.199219 62.171875 L 53.433594 62.171875 L 53.636719 64.679688 C 53.683594 65.265625 53.492188 65.828125 53.09375 66.261719 Z M 53.09375 66.261719 " fill-opacity="1" fill-rule="nonzero"/><path fill="#242424" d="M 24.386719 59.582031 L 50.25 59.582031 C 50.550781 59.582031 50.792969 59.339844 50.792969 59.039062 C 50.792969 58.742188 50.550781 58.5 50.25 58.5 L 24.386719 58.5 C 24.089844 58.5 23.847656 58.742188 23.847656 59.039062 C 23.847656 59.339844 24.089844 59.582031 24.386719 59.582031 Z M 24.386719 59.582031 " fill-opacity="1" fill-rule="nonzero"/><g clip-path="url(#28db7de923)"><path fill="#242424" d="M 57.460938 44.253906 C 59.542969 44.253906 61.234375 42.554688 61.234375 40.46875 L 61.234375 38.753906 C 61.746094 38.527344 62.089844 38.046875 62.117188 37.476562 C 62.320312 33.148438 61.84375 29.164062 60.703125 25.640625 C 60.390625 24.675781 59.726562 23.90625 58.878906 23.453125 C 59.335938 23.070312 59.667969 22.535156 59.789062 21.914062 C 60.5625 17.9375 60.5625 13.902344 59.789062 9.925781 C 59.542969 8.664062 58.429688 7.75 57.144531 7.75 L 43.085938 7.75 L 42.304688 5.570312 C 41.804688 4.167969 40.339844 3.226562 38.667969 3.226562 L 35.96875 3.226562 C 34.296875 3.226562 32.832031 4.167969 32.328125 5.570312 L 31.546875 7.75 L 17.550781 7.75 C 16.226562 7.75 15.105469 8.699219 14.894531 10.003906 C 14.257812 13.929688 14.257812 17.910156 14.894531 21.835938 C 15 22.480469 15.324219 23.035156 15.785156 23.433594 C 14.925781 23.882812 14.246094 24.660156 13.929688 25.640625 C 12.792969 29.164062 12.316406 33.144531 12.519531 37.476562 C 12.546875 38.042969 12.886719 38.527344 13.402344 38.753906 L 13.402344 40.46875 C 13.402344 42.554688 15.09375 44.253906 17.175781 44.253906 L 18.007812 44.253906 C 17.925781 44.71875 17.847656 45.183594 17.773438 45.65625 L 14.972656 46.679688 C 13.65625 47.160156 12.773438 48.371094 12.71875 49.757812 C 12.429688 57.246094 14.21875 64.941406 17.175781 68.90625 C 17.183594 68.910156 17.191406 68.914062 17.195312 68.917969 C 18.164062 70.453125 19.867188 71.472656 21.796875 71.472656 L 52.835938 71.472656 C 54.769531 71.472656 56.46875 70.453125 57.4375 68.917969 C 57.445312 68.914062 57.453125 68.910156 57.457031 68.90625 C 60.414062 64.941406 62.207031 57.246094 61.914062 49.757812 C 61.863281 48.371094 60.976562 47.160156 59.664062 46.679688 L 56.859375 45.65625 C 56.789062 45.183594 56.707031 44.71875 56.625 44.25 L 57.460938 44.25 Z M 57.460938 43.167969 L 56.433594 43.167969 C 55.933594 40.425781 55.332031 37.792969 54.625 35.269531 C 54.699219 35.207031 54.773438 35.144531 54.839844 35.082031 C 55.675781 34.3125 56.015625 33.140625 55.722656 32.027344 L 54.910156 28.953125 L 55.652344 29.257812 C 56.441406 29.578125 57 30.277344 57.148438 31.132812 C 57.777344 34.738281 58.558594 37.097656 59.535156 38.347656 C 59.699219 38.558594 59.917969 38.703125 60.15625 38.789062 L 60.15625 40.46875 C 60.15625 41.957031 58.945312 43.167969 57.460938 43.167969 Z M 45.640625 42.847656 L 43.769531 42.847656 L 43.769531 34.664062 L 45.640625 34.664062 Z M 43.769531 43.929688 L 45.640625 43.929688 L 45.640625 46.824219 C 45.640625 47.339844 45.222656 47.761719 44.707031 47.761719 C 44.1875 47.761719 43.769531 47.339844 43.769531 46.824219 Z M 46.183594 33.578125 L 43.230469 33.578125 C 42.929688 33.578125 42.6875 33.824219 42.6875 34.121094 L 42.6875 39.03125 C 41 39.269531 39.199219 39.398438 37.316406 39.398438 C 35.4375 39.398438 33.636719 39.269531 31.945312 39.03125 L 31.945312 34.121094 C 31.945312 33.824219 31.703125 33.578125 31.40625 33.578125 L 28.453125 33.578125 C 28.15625 33.578125 27.914062 33.824219 27.914062 34.121094 L 27.914062 38.175781 C 24.128906 37.074219 21.816406 35.46875 20.527344 34.28125 C 19.984375 33.785156 19.769531 33.027344 19.960938 32.304688 L 22.128906 24.089844 L 52.507812 24.089844 L 54.675781 32.304688 C 54.867188 33.027344 54.652344 33.785156 54.109375 34.28125 C 52.820312 35.46875 50.507812 37.074219 46.722656 38.175781 L 46.722656 34.121094 C 46.722656 33.820312 46.480469 33.578125 46.183594 33.578125 Z M 30.867188 42.847656 L 28.992188 42.847656 L 28.992188 34.664062 L 30.867188 34.664062 Z M 28.992188 43.929688 L 30.867188 43.929688 L 30.867188 46.824219 C 30.867188 47.339844 30.445312 47.761719 29.929688 47.761719 C 29.414062 47.761719 28.992188 47.339844 28.992188 46.824219 Z M 39.914062 8.832031 C 39.914062 8.832031 39.914062 8.832031 39.917969 8.832031 L 43.78125 8.832031 L 43.78125 23.007812 L 30.851562 23.007812 L 30.851562 8.832031 Z M 35.457031 7.75 L 35.6875 7.015625 C 35.800781 6.65625 36.222656 6.390625 36.695312 6.390625 L 37.941406 6.390625 C 38.410156 6.390625 38.835938 6.65625 38.949219 7.015625 L 39.179688 7.75 Z M 44.863281 23.007812 L 44.863281 8.832031 L 47.914062 8.832031 L 47.914062 23.007812 Z M 29.773438 23.007812 L 26.722656 23.007812 L 26.722656 8.832031 L 29.773438 8.832031 Z M 59.675781 25.972656 C 60.777344 29.375 61.234375 33.226562 61.035156 37.425781 C 61.027344 37.628906 60.886719 37.742188 60.753906 37.785156 C 60.671875 37.8125 60.507812 37.835938 60.386719 37.679688 C 59.535156 36.589844 58.804688 34.324219 58.214844 30.945312 C 58 29.722656 57.195312 28.714844 56.0625 28.253906 L 54.5625 27.644531 L 53.625 24.089844 L 57.109375 24.089844 C 58.28125 24.089844 59.3125 24.847656 59.675781 25.972656 Z M 58.726562 10.132812 C 59.472656 13.972656 59.472656 17.867188 58.726562 21.707031 C 58.582031 22.460938 57.914062 23.007812 57.144531 23.007812 L 48.992188 23.007812 L 48.992188 8.832031 L 57.144531 8.832031 C 57.914062 8.832031 58.582031 9.378906 58.726562 10.132812 Z M 33.347656 5.9375 C 33.691406 4.976562 34.769531 4.308594 35.96875 4.308594 L 38.667969 4.308594 C 39.867188 4.308594 40.945312 4.976562 41.289062 5.9375 L 41.9375 7.75 L 40.3125 7.75 L 39.980469 6.691406 C 39.726562 5.878906 38.886719 5.308594 37.941406 5.308594 L 36.695312 5.308594 C 35.75 5.308594 34.910156 5.878906 34.65625 6.691406 L 34.324219 7.75 L 32.695312 7.75 Z M 15.960938 10.179688 C 16.085938 9.398438 16.757812 8.832031 17.550781 8.832031 L 25.644531 8.832031 L 25.644531 23.007812 L 17.550781 23.007812 C 16.757812 23.007812 16.085938 22.441406 15.960938 21.664062 C 15.34375 17.851562 15.34375 13.988281 15.960938 10.179688 Z M 14.960938 25.972656 C 15.324219 24.847656 16.355469 24.089844 17.527344 24.089844 L 21.011719 24.089844 L 20.074219 27.644531 L 18.574219 28.253906 C 17.441406 28.714844 16.636719 29.722656 16.421875 30.945312 C 15.832031 34.324219 15.101562 36.589844 14.25 37.679688 C 14.125 37.835938 13.964844 37.8125 13.878906 37.785156 C 13.75 37.742188 13.609375 37.628906 13.597656 37.425781 C 13.402344 33.226562 13.859375 29.375 14.960938 25.972656 Z M 17.175781 43.167969 C 15.691406 43.167969 14.480469 41.957031 14.480469 40.46875 L 14.480469 38.789062 C 14.71875 38.703125 14.933594 38.558594 15.097656 38.347656 C 16.078125 37.097656 16.855469 34.738281 17.484375 31.132812 C 17.632812 30.28125 18.195312 29.578125 18.980469 29.257812 L 19.726562 28.953125 L 18.914062 32.027344 C 18.621094 33.140625 18.957031 34.3125 19.796875 35.082031 C 19.863281 35.144531 19.9375 35.207031 20.007812 35.273438 C 19.304688 37.792969 18.703125 40.429688 18.199219 43.167969 Z M 13.800781 49.800781 C 13.835938 48.855469 14.441406 48.027344 15.34375 47.699219 L 17.59375 46.875 C 16.765625 52.578125 16.34375 58.703125 16.34375 65.203125 C 14.589844 61.136719 13.585938 55.339844 13.800781 49.800781 Z M 52.835938 70.390625 L 21.796875 70.390625 C 19.394531 70.390625 17.433594 68.425781 17.421875 66.007812 C 17.367188 54.8125 18.546875 44.726562 20.925781 36.011719 C 22.433594 37.140625 24.6875 38.398438 27.914062 39.300781 L 27.914062 46.824219 C 27.914062 47.9375 28.816406 48.84375 29.929688 48.84375 C 31.042969 48.84375 31.945312 47.9375 31.945312 46.824219 L 31.945312 40.121094 C 33.644531 40.355469 35.441406 40.480469 37.316406 40.480469 C 39.191406 40.480469 40.992188 40.355469 42.6875 40.121094 L 42.6875 46.824219 C 42.6875 47.9375 43.59375 48.84375 44.707031 48.84375 C 45.816406 48.84375 46.722656 47.9375 46.722656 46.824219 L 46.722656 39.300781 C 49.949219 38.398438 52.203125 37.140625 53.707031 36.011719 C 56.085938 44.726562 57.269531 54.808594 57.214844 66.007812 C 57.203125 68.425781 55.238281 70.390625 52.835938 70.390625 Z M 59.292969 47.699219 C 60.191406 48.027344 60.800781 48.855469 60.835938 49.800781 C 61.050781 55.339844 60.046875 61.136719 58.292969 65.199219 C 58.289062 58.703125 57.871094 52.578125 57.042969 46.875 Z M 59.292969 47.699219 " fill-opacity="1" fill-rule="nonzero"/></g></svg>