<svg id="Calque_1" data-name="Calque 1" xmlns="http://www.w3.org/2000/svg" viewBox="0 0 658.09 666"><defs><style>.cls-1{fill:#fff;}</style></defs><path class="cls-1" d="M660.49,642.33c-28,0-49.08-18.23-61.71-33-7.71-9.11-23.14-9.11-31.55,0-12.62,15.43-33.66,33-61.71,33s-49.09-18.23-61.72-33c-7.71-9.11-23.14-9.11-31.55,0-12.62,14.73-33.66,33-61.71,33s-49.08-18.23-61.71-33c-7.71-9.11-23.14-9.11-31.55,0-12.62,15.43-33.66,33-61.71,33s-49.09-18.23-61.71-33a19.89,19.89,0,0,0-15.43-7,20.1,20.1,0,0,0-15.43,7c-12.62,15.43-34.36,33-61.71,33a20.34,20.34,0,0,0,0,40.67c28.05,0,54-10.52,77.14-31.55C141.57,671.78,168.22,683,195.57,683s54.7-11.22,77.14-31.55C295.85,671.78,322.5,683,349.85,683s54.7-11.22,77.14-31.55C450.13,671.78,476.78,683,504.13,683s54.7-11.22,77.14-31.55C604.41,671.78,631.06,683,658.41,683a20.35,20.35,0,0,0,20.33-20.33c2.1-11.22-7-20.34-18.24-20.34Z" transform="translate(-20.96 -17)"/><path class="cls-1" d="M89,478.24H160.5v96.07a33.09,33.09,0,0,1,7,7c5.62,6.31,16.84,17.53,28.76,17.53s23.14-11.22,28.75-17.53V478.24h94.67v99.58l3.51,3.51c5.61,6.31,16.83,17.53,28.75,17.53s23.14-11.22,28.75-17.53c1.41-1.41,2.11-2.81,3.51-3.51V478.24h92.57V581.33c5.61,6.31,16.83,17.53,28.75,17.53s23.14-11.22,28.75-17.53a26.44,26.44,0,0,1,6.31-6.31V478.24h71.53a9.28,9.28,0,0,0,9.12-9.12V428.45a9.29,9.29,0,0,0-9.12-9.12H514.63V237.72h45.58c17.53,0,25.24-21.74,11.92-33l-209-183a18.29,18.29,0,0,0-24.55,0l-210.37,183a18.75,18.75,0,0,0,12.62,33h45.58V419.34H89a9.29,9.29,0,0,0-9.12,9.12v40.67A9.29,9.29,0,0,0,89,478.25ZM309.17,288.9h82.74V419.34H309.17Z" transform="translate(-20.96 -17)"/></svg>