<?xml version="1.0" encoding="utf-8"?>
<!-- Generator: Adobe Illustrator 25.2.3, SVG Export Plug-In . SVG Version: 6.00 Build 0)  -->
<svg version="1.1" id="Calque_1" xmlns="http://www.w3.org/2000/svg" xmlns:xlink="http://www.w3.org/1999/xlink" x="0px" y="0px"
	 viewBox="0 0 700 700" style="enable-background:new 0 0 700 700;" xml:space="preserve">
<g>
	<path d="M92.3,323.7c0-5.8,4.7-10.5,10.5-10.5h228.3c5.8,0,10.5,4.7,10.5,10.5c0,5.8-4.7,10.5-10.5,10.5H102.8
		C97,334.2,92.3,329.5,92.3,323.7z M410.7,382.7H102.8c-5.8,0-10.5,4.7-10.5,10.5s4.7,10.5,10.5,10.5h307.9
		c5.8,0,10.5-4.7,10.5-10.5S416.5,382.7,410.7,382.7z M410.7,452.1H102.8c-5.8,0-10.5,4.7-10.5,10.5c0,5.8,4.7,10.5,10.5,10.5h307.9
		c5.8,0,10.5-4.7,10.5-10.5C421.2,456.8,416.5,452.1,410.7,452.1z M687.1,82V371c0,26.2-21.3,47.6-47.6,47.6h-47.1l-38.7,67
		c-1.9,3.3-5.3,5.3-9.1,5.3c-3.8,0-7.2-2-9.1-5.3l-34.8-60.3v120.5c0,26.2-21.3,47.6-47.6,47.6l-250,0l-38.7,67
		c-1.9,3.3-5.3,5.3-9.1,5.3c-3.8,0-7.2-2-9.1-5.3l-38.8-67H60.5c-26.2,0-47.6-21.3-47.6-47.6V256.8c0-26.2,21.3-47.6,47.6-47.6
		h138.9V82c0-26.2,21.3-47.6,47.6-47.6h392.6C665.8,34.5,687.1,55.8,687.1,82L687.1,82z M479.5,408V256.8
		c0-14.6-11.9-26.5-26.5-26.5H209.8l-149.3,0c-14.6,0-26.5,11.9-26.5,26.5v288.9c0,14.6,11.9,26.5,26.5,26.5h53.2
		c3.8,0,7.2,2,9.1,5.3l32.6,56.5l32.6-56.5c1.9-3.3,5.3-5.3,9.1-5.3h256c14.6,0,26.5-11.9,26.5-26.5L479.5,408L479.5,408z M666.1,82
		c0-14.6-11.9-26.5-26.5-26.5H246.9c-14.6,0-26.5,11.9-26.5,26.5v127.2H453c26.2,0,47.6,21.3,47.6,47.6v140.7h2.3
		c3.8,0,7.2,2,9.1,5.3l32.6,56.5l32.6-56.5c1.9-3.3,5.3-5.3,9.1-5.3h53.1c14.6,0,26.5-11.9,26.5-26.5l0-288.9L666.1,82z"/>
</g>
</svg>
