<svg id="Calque_1" data-name="Calque 1" xmlns="http://www.w3.org/2000/svg" viewBox="0 0 607.83 603.27"><path d="M645.38,320.45,385.63,54.72a49.84,49.84,0,0,0-71.26,0L54.61,320.45A29.89,29.89,0,0,0,76,371.24h51.83V593.18A49.88,49.88,0,0,0,177.63,643h64.7a49.88,49.88,0,0,0,49.82-49.82V443.25a3.33,3.33,0,0,1,3.32-3.33H404.53a3.33,3.33,0,0,1,3.32,3.33V593.18A49.88,49.88,0,0,0,457.67,643h64.69a49.88,49.88,0,0,0,49.83-49.82V371.24H624a29.89,29.89,0,0,0,21.37-50.79ZM555.57,338A16.61,16.61,0,0,0,539,354.63V593.18a16.62,16.62,0,0,1-16.61,16.6h-64.7a16.61,16.61,0,0,1-16.6-16.6V443.24a36.58,36.58,0,0,0-36.54-36.53h-109a36.58,36.58,0,0,0-36.54,36.53V593.18a16.62,16.62,0,0,1-16.61,16.6H177.63A16.62,16.62,0,0,1,161,593.18V354.63A16.61,16.61,0,0,0,144.41,338H83.88L338.12,77.93a17,17,0,0,1,23.74,0L616.1,338Z" transform="translate(-46.08 -39.73)"/></svg>