<svg id="Calque_1" data-name="Calque 1" xmlns="http://www.w3.org/2000/svg" viewBox="0 0 636.1 633.3"><path d="M324.8,666.6A79.21,79.21,0,0,0,404,587.4V500a15.8,15.8,0,0,0-31.6,0v87.5A47.46,47.46,0,0,1,324.9,635H111.1a47.46,47.46,0,0,1-47.5-47.5v-475A47.46,47.46,0,0,1,111.1,65H324.8a47.46,47.46,0,0,1,47.5,47.5v88.6a15.8,15.8,0,1,0,31.6,0V112.5a79.21,79.21,0,0,0-79.2-79.2H111.1a79.21,79.21,0,0,0-79.2,79.2V587.4a79.21,79.21,0,0,0,79.2,79.2Z" transform="translate(-31.9 -33.3)"/><path d="M662,337.4,495.8,171.2a15.84,15.84,0,0,0-22.4,22.4L614,334.2H222a15.8,15.8,0,0,0,0,31.6H614L473.2,506.7a15.84,15.84,0,0,0,22.4,22.4L661.8,362.9h0a15.9,15.9,0,0,0,0-25.2Z" transform="translate(-31.9 -33.3)"/></svg>