<?xml version="1.0" encoding="utf-8"?>
<!-- Generator: Adobe Illustrator 25.2.3, SVG Export Plug-In . SVG Version: 6.00 Build 0)  -->
<svg version="1.1" id="Calque_1" xmlns="http://www.w3.org/2000/svg" xmlns:xlink="http://www.w3.org/1999/xlink" x="0px" y="0px"
	 viewBox="0 0 700 700" style="enable-background:new 0 0 700 700;" xml:space="preserve">
<g>
	<path d="M350,68.1c17.8,0,35.1,2.3,51.6,6.5c-7.8-21.4-28.2-36.1-51.6-36.1s-43.8,14.7-51.6,36.1C314.9,70.4,332.2,68.1,350,68.1z
		 M350,688.3c-40,0-73.6-29-80.1-67.8H97.3c-7.4,0-13.4-6-13.4-13.4v-38.6c0-5.1,2.8-9.5,7-11.8c24.1-16.4,49.9-29.1,49.9-62.7
		V277.4c0-85.2,51.9-160.4,128-192.7c4.4-41.2,39.3-72.9,81.3-72.9s76.8,31.7,81.3,72.9c76.1,32.3,128,107.5,128,192.7V494
		c0,33.6,25.2,45.9,51,63.4c3.8,2.6,5.9,6.8,5.9,11l0.1,38.6c0,7.4-6,13.4-13.4,13.4H430.1C423.6,659.2,390,688.3,350,688.3
		L350,688.3z M350,661.5c25.2,0,46.7-17.2,52.7-41H297.3C303.3,644.3,324.8,661.5,350,661.5L350,661.5z M350,94.9
		c-100.3,0-182.4,82.1-182.4,182.4V494c0,45.5-26.8,61.7-56.9,81.6v18.1h478.6v-18.1c-30.1-19.9-56.9-36.1-56.9-81.6V277.4
		C532.4,177,450.3,94.9,350,94.9L350,94.9z"/>
</g>
</svg>
