<svg xmlns="http://www.w3.org/2000/svg" xmlns:xlink="http://www.w3.org/1999/xlink" width="100" zoomAndPan="magnify" viewBox="0 0 75 74.999997" height="100" preserveAspectRatio="xMidYMid meet" version="1.0"><defs><clipPath id="8829f430ab"><path d="M 2.542969 3.410156 L 70 3.410156 L 70 71.660156 L 2.542969 71.660156 Z M 2.542969 3.410156 " clip-rule="nonzero"/></clipPath></defs><g clip-path="url(#8829f430ab)"><path fill="#272727" d="M 25.425781 71.160156 L 30.097656 66.460938 L 30.09375 66.457031 C 30.289062 66.261719 30.414062 65.992188 30.421875 65.695312 L 30.703125 54.234375 C 31.335938 53.6875 31.964844 53.105469 32.589844 52.476562 L 38.785156 46.246094 L 50.707031 69.472656 C 50.757812 69.578125 50.828125 69.671875 50.914062 69.757812 C 51.355469 70.191406 52.058594 70.1875 52.488281 69.746094 L 58.542969 63.554688 C 58.800781 63.328125 58.949219 62.984375 58.917969 62.617188 L 58.492188 57.730469 L 61.988281 54.214844 C 62.722656 53.476562 63.09375 52.503906 63.09375 51.53125 C 63.09375 50.5625 62.722656 49.585938 61.988281 48.847656 C 61.253906 48.109375 60.289062 47.738281 59.320312 47.738281 C 58.75 47.738281 58.183594 47.886719 57.65625 48.144531 L 57.351562 44.644531 L 60.851562 41.125 C 61.582031 40.386719 61.953125 39.414062 61.953125 38.441406 C 61.953125 37.472656 61.582031 36.5 60.851562 35.761719 L 60.777344 35.691406 C 60.050781 34.996094 59.117188 34.652344 58.179688 34.652344 C 57.609375 34.652344 57.042969 34.796875 56.519531 35.058594 L 55.992188 29.015625 C 55.992188 28.996094 55.980469 28.984375 55.976562 28.960938 L 62.40625 22.5 C 64.910156 19.980469 66.917969 17.601562 68.207031 14.835938 C 69.515625 12.03125 70.050781 8.894531 69.566406 4.921875 C 69.5 4.394531 69.078125 3.996094 68.570312 3.941406 C 64.632812 3.460938 61.519531 4 58.734375 5.308594 C 55.984375 6.605469 53.617188 8.628906 51.117188 11.144531 L 44.746094 17.546875 C 44.675781 17.527344 44.605469 17.488281 44.53125 17.484375 L 38.523438 16.957031 C 38.78125 16.429688 38.925781 15.859375 38.925781 15.28125 C 38.925781 14.3125 38.558594 13.335938 37.824219 12.597656 L 37.816406 12.597656 C 37.085938 11.859375 36.117188 11.488281 35.152344 11.488281 C 34.21875 11.488281 33.28125 11.835938 32.558594 12.53125 L 32.484375 12.597656 L 28.988281 16.117188 L 25.503906 15.808594 C 25.761719 15.28125 25.90625 14.710938 25.90625 14.136719 C 25.90625 13.164062 25.539062 12.191406 24.804688 11.453125 C 24.070312 10.714844 23.101562 10.34375 22.136719 10.34375 C 21.167969 10.34375 20.203125 10.710938 19.46875 11.453125 L 15.96875 14.96875 L 11.109375 14.539062 C 10.746094 14.507812 10.402344 14.660156 10.179688 14.917969 L 4.019531 21.003906 C 3.582031 21.4375 3.578125 22.148438 4.007812 22.589844 C 4.09375 22.675781 4.191406 22.746094 4.289062 22.796875 L 27.53125 34.855469 L 21.300781 41.121094 C 20.582031 41.839844 19.9375 42.566406 19.328125 43.300781 L 8.425781 43.574219 C 8.128906 43.582031 7.863281 43.707031 7.667969 43.902344 L 7.664062 43.898438 L 2.992188 48.597656 C 2.554688 49.035156 2.554688 49.746094 2.992188 50.183594 C 3.179688 50.371094 3.414062 50.480469 3.65625 50.507812 L 14.917969 52.785156 C 14.707031 54.371094 14.699219 56.066406 14.925781 57.90625 C 14.988281 58.4375 15.410156 58.835938 15.917969 58.886719 C 17.824219 59.121094 19.570312 59.097656 21.199219 58.855469 L 23.527344 70.488281 C 23.554688 70.730469 23.660156 70.96875 23.847656 71.15625 C 24.285156 71.601562 24.992188 71.601562 25.425781 71.160156 Z M 57.886719 50.777344 L 58.230469 50.433594 C 58.53125 50.136719 58.925781 49.984375 59.324219 49.984375 C 59.71875 49.984375 60.113281 50.136719 60.414062 50.433594 C 60.710938 50.734375 60.863281 51.132812 60.863281 51.53125 C 60.863281 51.929688 60.710938 52.328125 60.414062 52.628906 L 58.238281 54.816406 L 57.910156 51.035156 Z M 56.75 37.683594 L 57.089844 37.34375 C 57.386719 37.042969 57.785156 36.894531 58.183594 36.894531 C 58.5625 36.894531 58.9375 37.03125 59.230469 37.300781 L 59.277344 37.34375 C 59.570312 37.640625 59.722656 38.042969 59.722656 38.441406 C 59.722656 38.839844 59.570312 39.238281 59.273438 39.539062 L 57.101562 41.722656 L 56.777344 38.015625 Z M 54.480469 37.363281 L 55.085938 44.316406 L 55.617188 50.453125 L 56.222656 57.40625 L 56.648438 62.300781 L 51.980469 67.078125 L 40.4375 44.585938 L 53.925781 31.023438 Z M 34.105469 14.144531 C 34.398438 13.875 34.777344 13.738281 35.152344 13.738281 C 35.550781 13.738281 35.949219 13.886719 36.242188 14.1875 C 36.542969 14.488281 36.691406 14.886719 36.691406 15.285156 C 36.691406 15.683594 36.542969 16.078125 36.242188 16.382812 L 35.90625 16.726562 L 34.351562 16.589844 L 31.890625 16.371094 Z M 21.046875 13.042969 C 21.34375 12.742188 21.738281 12.59375 22.136719 12.59375 C 22.53125 12.59375 22.925781 12.742188 23.226562 13.042969 C 23.523438 13.34375 23.675781 13.742188 23.675781 14.140625 C 23.675781 14.539062 23.523438 14.933594 23.226562 15.238281 L 22.882812 15.582031 L 20.839844 15.402344 L 18.871094 15.230469 Z M 6.679688 21.519531 L 11.425781 16.824219 L 16.292969 17.253906 C 16.292969 17.253906 16.292969 17.253906 16.296875 17.253906 L 18.84375 17.476562 L 29.3125 18.398438 L 29.570312 18.417969 L 42.726562 19.578125 L 29.183594 33.195312 Z M 6.039062 48.710938 L 8.929688 45.804688 L 17.660156 45.585938 C 17.03125 46.554688 16.46875 47.542969 16.039062 48.589844 C 15.769531 49.238281 15.542969 49.910156 15.359375 50.597656 Z M 17.050781 56.753906 C 16.828125 53.976562 17.210938 51.601562 18.097656 49.449219 C 19.089844 47.042969 20.730469 44.875 22.878906 42.710938 L 52.695312 12.730469 C 55.042969 10.371094 57.230469 8.488281 59.679688 7.335938 C 61.882812 6.300781 64.355469 5.824219 67.441406 6.082031 C 67.699219 9.183594 67.226562 11.671875 66.195312 13.886719 C 65.046875 16.347656 63.175781 18.546875 60.828125 20.910156 L 31.011719 50.890625 C 28.863281 53.050781 26.707031 54.699219 24.3125 55.699219 C 22.171875 56.589844 19.808594 56.976562 17.050781 56.753906 Z M 23.375 58.390625 C 23.984375 58.214844 24.585938 58.011719 25.167969 57.769531 C 26.308594 57.292969 27.386719 56.667969 28.4375 55.957031 L 28.210938 65.1875 L 25.316406 68.097656 Z M 23.375 58.390625 " fill-opacity="1" fill-rule="nonzero"/></g></svg>