<svg xmlns="http://www.w3.org/2000/svg" xmlns:xlink="http://www.w3.org/1999/xlink" width="100" zoomAndPan="magnify" viewBox="0 0 75 74.999997" height="100" preserveAspectRatio="xMidYMid meet" version="1.0"><defs><clipPath id="51ecf0d240"><path d="M 3.152344 27 L 72 27 L 72 71.339844 L 3.152344 71.339844 Z M 3.152344 27 " clip-rule="nonzero"/></clipPath></defs><g clip-path="url(#51ecf0d240)"><path fill="#000000" d="M 71.171875 36.152344 C 70.898438 35.714844 70.539062 35.363281 70.097656 35.09375 C 69.65625 34.824219 69.179688 34.667969 68.667969 34.617188 L 65.902344 34.355469 L 65.894531 34.355469 L 64.585938 34.230469 L 62.136719 33.882812 C 58.875 33.425781 55.714844 33.800781 52.652344 35.011719 C 49.691406 36.175781 46.757812 37.414062 43.925781 38.6875 L 14.933594 27.570312 C 14.160156 27.273438 13.359375 27.132812 12.527344 27.15625 C 11.699219 27.175781 10.902344 27.355469 10.144531 27.695312 L 7.636719 28.808594 C 7.238281 28.984375 6.90625 29.253906 6.652344 29.609375 C 6.394531 29.964844 6.242188 30.359375 6.199219 30.796875 C 6.160156 31.234375 6.226562 31.652344 6.410156 32.050781 C 6.59375 32.449219 6.867188 32.773438 7.226562 33.027344 L 31.015625 49.734375 C 31.132812 49.820312 31.265625 49.878906 31.40625 49.910156 C 31.550781 49.941406 31.695312 49.945312 31.835938 49.917969 C 31.980469 49.894531 32.117188 49.839844 32.238281 49.761719 C 32.363281 49.683594 32.464844 49.585938 32.550781 49.46875 C 32.632812 49.347656 32.691406 49.21875 32.722656 49.074219 C 32.757812 48.933594 32.761719 48.789062 32.734375 48.644531 C 32.710938 48.5 32.660156 48.367188 32.582031 48.246094 C 32.503906 48.121094 32.402344 48.015625 32.285156 47.933594 L 8.496094 31.222656 C 8.417969 31.171875 8.386719 31.101562 8.398438 31.011719 C 8.40625 30.921875 8.449219 30.855469 8.535156 30.820312 L 11.042969 29.710938 C 12.066406 29.253906 13.097656 29.226562 14.144531 29.628906 L 46.589844 42.070312 C 46.726562 42.121094 46.871094 42.144531 47.015625 42.140625 C 47.164062 42.136719 47.300781 42.105469 47.4375 42.046875 C 47.570312 41.988281 47.6875 41.90625 47.789062 41.800781 C 47.886719 41.691406 47.964844 41.570312 48.015625 41.433594 C 48.070312 41.300781 48.09375 41.15625 48.089844 41.011719 C 48.085938 40.867188 48.054688 40.726562 47.996094 40.59375 C 47.9375 40.457031 47.851562 40.339844 47.746094 40.242188 C 47.640625 40.140625 47.519531 40.0625 47.382812 40.011719 L 46.84375 39.804688 C 49.011719 38.859375 51.226562 37.941406 53.464844 37.0625 C 55.839844 36.125 58.300781 35.753906 60.851562 35.957031 L 57.121094 37.207031 C 56.984375 37.253906 56.859375 37.324219 56.75 37.417969 C 56.636719 37.515625 56.550781 37.628906 56.484375 37.761719 C 56.417969 37.890625 56.382812 38.027344 56.371094 38.175781 C 56.363281 38.320312 56.378906 38.460938 56.425781 38.601562 C 56.472656 38.738281 56.546875 38.863281 56.640625 38.972656 C 56.738281 39.085938 56.851562 39.171875 56.980469 39.238281 C 57.113281 39.300781 57.25 39.339844 57.398438 39.351562 C 57.542969 39.359375 57.6875 39.339844 57.824219 39.296875 L 65.941406 36.574219 L 68.457031 36.8125 C 68.695312 36.835938 68.90625 36.925781 69.085938 37.078125 C 69.269531 37.234375 69.390625 37.425781 69.453125 37.65625 C 69.511719 37.886719 69.5 38.113281 69.417969 38.339844 C 69.335938 38.5625 69.199219 38.742188 69.003906 38.878906 C 63.515625 42.660156 57.09375 46.03125 49.484375 49.109375 C 49.449219 49.125 49.410156 49.136719 49.375 49.152344 C 47.769531 49.800781 46.113281 50.4375 44.398438 51.0625 C 40.96875 52.3125 37.347656 53.503906 33.503906 54.644531 C 33.480469 54.652344 33.457031 54.65625 33.433594 54.664062 C 27.363281 56.464844 20.734375 58.144531 13.414062 59.738281 C 13.132812 59.796875 12.875 59.746094 12.640625 59.578125 C 12.4375 59.4375 12.316406 59.246094 12.28125 59.003906 C 12.234375 58.570312 12.347656 58.1875 12.628906 57.851562 C 12.804688 57.617188 12.875 57.355469 12.839844 57.066406 C 12.808594 56.777344 12.679688 56.539062 12.457031 56.347656 L 5.46875 50.453125 C 5.46875 50.441406 5.472656 50.433594 5.484375 50.425781 L 6.875 49.992188 C 7.261719 49.871094 7.652344 49.855469 8.046875 49.949219 L 18.734375 52.453125 L 15.613281 54.308594 C 15.488281 54.382812 15.382812 54.480469 15.292969 54.597656 C 15.207031 54.714844 15.144531 54.84375 15.109375 54.984375 C 15.074219 55.128906 15.066406 55.269531 15.085938 55.414062 C 15.105469 55.558594 15.15625 55.695312 15.230469 55.820312 C 15.304688 55.945312 15.402344 56.050781 15.519531 56.140625 C 15.636719 56.226562 15.765625 56.289062 15.910156 56.324219 C 16.050781 56.359375 16.195312 56.367188 16.339844 56.347656 C 16.484375 56.324219 16.621094 56.277344 16.746094 56.203125 L 22.210938 52.949219 C 22.210938 52.945312 22.214844 52.945312 22.21875 52.941406 C 22.222656 52.9375 22.226562 52.9375 22.230469 52.933594 L 26.085938 50.515625 C 26.210938 50.4375 26.316406 50.339844 26.402344 50.222656 C 26.484375 50.101562 26.542969 49.972656 26.578125 49.828125 C 26.609375 49.6875 26.613281 49.542969 26.589844 49.398438 C 26.5625 49.253906 26.511719 49.121094 26.433594 48.996094 C 26.359375 48.875 26.257812 48.769531 26.140625 48.683594 C 26.019531 48.601562 25.890625 48.542969 25.746094 48.507812 C 25.605469 48.476562 25.460938 48.472656 25.316406 48.496094 C 25.171875 48.523438 25.039062 48.574219 24.914062 48.652344 L 21.445312 50.824219 L 8.554688 47.800781 C 7.765625 47.617188 6.988281 47.644531 6.214844 47.886719 L 4.824219 48.324219 C 4.433594 48.445312 4.105469 48.65625 3.835938 48.957031 C 3.5625 49.257812 3.386719 49.609375 3.308594 50.003906 C 3.226562 50.402344 3.253906 50.792969 3.386719 51.175781 C 3.519531 51.558594 3.742188 51.878906 4.050781 52.140625 L 10.335938 57.445312 C 10.089844 58.035156 10.007812 58.644531 10.09375 59.277344 C 10.203125 60.167969 10.628906 60.867188 11.367188 61.378906 C 11.917969 61.769531 12.53125 61.960938 13.210938 61.960938 C 13.4375 61.960938 13.664062 61.9375 13.886719 61.890625 C 20.277344 60.5 26.152344 59.042969 31.597656 57.496094 L 26.121094 67.867188 C 26.027344 68.046875 25.957031 68.234375 25.910156 68.429688 C 25.867188 68.628906 25.84375 68.824219 25.851562 69.027344 C 25.855469 69.230469 25.886719 69.425781 25.945312 69.621094 C 26.003906 69.8125 26.082031 69.996094 26.1875 70.167969 C 26.292969 70.339844 26.417969 70.5 26.5625 70.640625 C 26.707031 70.78125 26.867188 70.898438 27.042969 71 C 27.21875 71.097656 27.402344 71.171875 27.597656 71.222656 C 27.792969 71.273438 27.992188 71.300781 28.195312 71.300781 L 30.609375 71.300781 C 31.15625 71.300781 31.679688 71.1875 32.175781 70.96875 C 32.675781 70.746094 33.105469 70.429688 33.472656 70.027344 L 50.496094 51.078125 C 58.179688 47.957031 64.679688 44.539062 70.257812 40.691406 C 70.613281 40.449219 70.910156 40.144531 71.148438 39.785156 C 71.386719 39.421875 71.550781 39.03125 71.636719 38.605469 C 71.722656 38.183594 71.722656 37.757812 71.644531 37.332031 C 71.5625 36.910156 71.40625 36.515625 71.171875 36.152344 Z M 31.828125 68.554688 C 31.503906 68.914062 31.097656 69.097656 30.609375 69.097656 L 28.195312 69.097656 C 28.144531 69.097656 28.105469 69.074219 28.078125 69.03125 C 28.050781 68.988281 28.050781 68.941406 28.074219 68.894531 L 34.546875 56.632812 C 38.28125 55.515625 41.808594 54.351562 45.15625 53.132812 C 45.421875 53.035156 45.683594 52.941406 45.945312 52.84375 Z M 31.828125 68.554688 " fill-opacity="1" fill-rule="nonzero"/></g><path fill="#000000" d="M 32.851562 23.585938 C 31.890625 24.882812 31.410156 26.34375 31.410156 27.960938 C 31.410156 28.3125 31.433594 28.664062 31.484375 29.011719 C 31.523438 29.285156 31.648438 29.507812 31.855469 29.6875 C 32.0625 29.867188 32.304688 29.957031 32.578125 29.957031 L 60.566406 29.957031 C 60.714844 29.957031 60.855469 29.929688 60.992188 29.875 C 61.125 29.820312 61.246094 29.738281 61.347656 29.636719 C 61.453125 29.53125 61.53125 29.414062 61.585938 29.277344 C 61.644531 29.144531 61.671875 29.003906 61.671875 28.855469 C 61.671875 28.710938 61.644531 28.570312 61.585938 28.433594 C 61.53125 28.300781 61.453125 28.179688 61.347656 28.078125 C 61.246094 27.972656 61.125 27.894531 60.992188 27.839844 C 60.855469 27.78125 60.714844 27.753906 60.566406 27.753906 L 33.621094 27.753906 C 33.636719 27.386719 33.691406 27.023438 33.78125 26.664062 C 33.875 26.308594 34.003906 25.964844 34.171875 25.632812 C 34.339844 25.304688 34.539062 24.996094 34.769531 24.707031 C 35.003906 24.417969 35.261719 24.160156 35.550781 23.925781 C 35.839844 23.695312 36.148438 23.496094 36.480469 23.332031 C 36.808594 23.164062 37.152344 23.035156 37.511719 22.941406 C 37.871094 22.851562 38.234375 22.796875 38.605469 22.78125 C 38.972656 22.769531 39.339844 22.792969 39.707031 22.855469 C 39.675781 23.144531 39.660156 23.429688 39.660156 23.71875 C 39.660156 23.867188 39.6875 24.007812 39.742188 24.140625 C 39.800781 24.277344 39.878906 24.394531 39.980469 24.5 C 40.085938 24.601562 40.203125 24.683594 40.339844 24.738281 C 40.476562 24.792969 40.617188 24.820312 40.761719 24.824219 C 40.910156 24.820312 41.050781 24.792969 41.183594 24.738281 C 41.320312 24.683594 41.441406 24.601562 41.542969 24.5 C 41.648438 24.394531 41.726562 24.277344 41.78125 24.140625 C 41.839844 24.007812 41.867188 23.867188 41.867188 23.71875 C 41.890625 23.242188 41.945312 22.769531 42.03125 22.300781 C 42.117188 21.929688 42.234375 21.570312 42.390625 21.21875 C 42.542969 20.867188 42.722656 20.535156 42.9375 20.21875 C 43.152344 19.902344 43.390625 19.609375 43.660156 19.335938 C 43.925781 19.0625 44.214844 18.816406 44.527344 18.597656 C 44.839844 18.378906 45.167969 18.1875 45.515625 18.027344 C 45.863281 17.867188 46.222656 17.742188 46.59375 17.648438 C 46.960938 17.554688 47.339844 17.492188 47.71875 17.46875 C 48.101562 17.441406 48.480469 17.449219 48.859375 17.492188 C 49.238281 17.539062 49.613281 17.613281 49.976562 17.726562 C 50.34375 17.835938 50.695312 17.980469 51.035156 18.15625 C 51.375 18.332031 51.695312 18.535156 51.996094 18.769531 C 52.296875 19.003906 52.574219 19.265625 52.828125 19.546875 C 53.082031 19.832031 53.308594 20.140625 53.507812 20.464844 C 53.707031 20.789062 53.875 21.132812 54.011719 21.488281 C 54.144531 21.84375 54.25 22.210938 54.316406 22.585938 C 54.386719 22.960938 54.421875 23.339844 54.421875 23.71875 C 54.421875 23.992188 54.402344 24.265625 54.367188 24.539062 C 54.351562 24.683594 54.359375 24.824219 54.398438 24.964844 C 54.4375 25.105469 54.5 25.234375 54.589844 25.351562 C 54.679688 25.46875 54.785156 25.5625 54.914062 25.632812 C 55.039062 25.707031 55.175781 25.753906 55.320312 25.773438 C 55.464844 25.789062 55.609375 25.78125 55.75 25.742188 C 55.890625 25.707031 56.019531 25.640625 56.136719 25.550781 C 56.253906 25.464844 56.347656 25.355469 56.417969 25.230469 C 56.492188 25.101562 56.539062 24.96875 56.558594 24.824219 C 56.605469 24.46875 56.628906 24.113281 56.628906 23.753906 C 56.628906 23.398438 56.609375 23.042969 56.5625 22.6875 C 56.519531 22.335938 56.453125 21.984375 56.363281 21.636719 C 56.277344 21.292969 56.167969 20.953125 56.035156 20.621094 C 55.90625 20.289062 55.753906 19.964844 55.582031 19.652344 C 55.410156 19.339844 55.21875 19.039062 55.007812 18.75 C 54.796875 18.460938 54.570312 18.1875 54.324219 17.925781 C 54.082031 17.667969 53.820312 17.421875 53.546875 17.195312 C 53.269531 16.96875 52.980469 16.757812 52.679688 16.566406 C 52.375 16.375 52.0625 16.203125 51.738281 16.050781 C 51.417969 15.902344 51.085938 15.769531 50.742188 15.660156 C 50.402344 15.550781 50.058594 15.460938 49.707031 15.394531 C 49.355469 15.332031 49 15.285156 48.644531 15.265625 C 48.285156 15.242188 47.929688 15.242188 47.574219 15.265625 C 47.214844 15.289062 46.863281 15.335938 46.511719 15.40625 C 46.160156 15.472656 45.816406 15.5625 45.476562 15.671875 C 45.414062 15.355469 45.335938 15.039062 45.238281 14.730469 C 45.140625 14.417969 45.023438 14.117188 44.890625 13.820312 C 44.753906 13.527344 44.601562 13.238281 44.433594 12.960938 C 44.261719 12.683594 44.074219 12.417969 43.875 12.164062 C 43.671875 11.910156 43.453125 11.667969 43.222656 11.441406 C 42.992188 11.210938 42.746094 11 42.488281 10.800781 C 42.230469 10.601562 41.960938 10.421875 41.679688 10.253906 C 41.402344 10.089844 41.113281 9.941406 40.8125 9.8125 C 40.515625 9.679688 40.210938 9.570312 39.898438 9.476562 C 39.585938 9.382812 39.269531 9.308594 38.949219 9.253906 C 38.628906 9.199219 38.304688 9.164062 37.980469 9.148438 C 37.65625 9.132812 37.332031 9.136719 37.007812 9.160156 C 36.683594 9.183594 36.359375 9.226562 36.039062 9.289062 C 35.722656 9.351562 35.40625 9.4375 35.097656 9.535156 C 34.789062 9.636719 34.488281 9.757812 34.191406 9.894531 C 33.898438 10.035156 33.613281 10.191406 33.335938 10.363281 C 33.0625 10.535156 32.796875 10.722656 32.542969 10.929688 C 32.292969 11.132812 32.050781 11.351562 31.828125 11.585938 C 31.601562 11.820312 31.390625 12.066406 31.195312 12.328125 C 31 12.585938 30.820312 12.859375 30.65625 13.140625 C 30.492188 13.421875 30.347656 13.710938 30.222656 14.011719 C 30.09375 14.308594 29.984375 14.613281 29.894531 14.925781 C 29.804688 15.238281 29.734375 15.554688 29.683594 15.878906 C 29.632812 16.199219 29.601562 16.519531 29.589844 16.84375 C 29.578125 17.171875 29.585938 17.496094 29.613281 17.816406 C 29.640625 18.140625 29.6875 18.460938 29.753906 18.78125 C 29.820312 19.097656 29.90625 19.410156 30.011719 19.71875 C 30.117188 20.027344 30.242188 20.328125 30.382812 20.621094 C 30.523438 20.910156 30.683594 21.195312 30.859375 21.46875 C 31.035156 21.742188 31.226562 22.003906 31.4375 22.253906 C 31.644531 22.503906 31.867188 22.738281 32.101562 22.960938 C 32.339844 23.183594 32.589844 23.390625 32.851562 23.585938 Z M 37.597656 11.335938 C 37.960938 11.335938 38.320312 11.371094 38.675781 11.4375 C 39.03125 11.507812 39.378906 11.605469 39.714844 11.738281 C 40.054688 11.871094 40.375 12.035156 40.683594 12.226562 C 40.988281 12.417969 41.277344 12.640625 41.542969 12.886719 C 41.808594 13.132812 42.046875 13.398438 42.265625 13.691406 C 42.480469 13.980469 42.667969 14.289062 42.824219 14.617188 C 42.980469 14.941406 43.109375 15.28125 43.203125 15.628906 C 43.296875 15.980469 43.355469 16.335938 43.386719 16.695312 C 41.898438 17.695312 40.84375 19.035156 40.210938 20.707031 C 39.203125 20.511719 38.195312 20.527344 37.195312 20.753906 C 36.191406 20.976562 35.273438 21.394531 34.445312 22 C 33.917969 21.660156 33.460938 21.246094 33.066406 20.757812 C 32.675781 20.269531 32.371094 19.734375 32.152344 19.148438 C 31.9375 18.558594 31.816406 17.953125 31.796875 17.328125 C 31.773438 16.703125 31.851562 16.09375 32.027344 15.492188 C 32.207031 14.890625 32.472656 14.335938 32.832031 13.824219 C 33.1875 13.308594 33.617188 12.863281 34.121094 12.492188 C 34.621094 12.117188 35.171875 11.832031 35.765625 11.632812 C 36.359375 11.4375 36.972656 11.335938 37.597656 11.335938 Z M 37.597656 11.335938 " fill-opacity="1" fill-rule="nonzero"/><path fill="#000000" d="M 24.105469 17.882812 L 26.484375 17.882812 C 26.628906 17.882812 26.769531 17.855469 26.90625 17.800781 C 27.042969 17.742188 27.160156 17.664062 27.265625 17.5625 C 27.367188 17.457031 27.449219 17.339844 27.503906 17.203125 C 27.558594 17.066406 27.585938 16.929688 27.585938 16.78125 C 27.585938 16.636719 27.558594 16.496094 27.503906 16.359375 C 27.449219 16.226562 27.367188 16.105469 27.265625 16.003906 C 27.160156 15.898438 27.042969 15.820312 26.90625 15.761719 C 26.769531 15.707031 26.628906 15.679688 26.484375 15.679688 L 24.105469 15.679688 C 23.960938 15.679688 23.820312 15.707031 23.683594 15.761719 C 23.550781 15.820312 23.429688 15.898438 23.324219 16.003906 C 23.222656 16.105469 23.144531 16.226562 23.085938 16.359375 C 23.03125 16.496094 23.003906 16.636719 23.003906 16.78125 C 23.003906 16.929688 23.03125 17.066406 23.085938 17.203125 C 23.144531 17.339844 23.222656 17.457031 23.324219 17.5625 C 23.429688 17.664062 23.550781 17.742188 23.683594 17.800781 C 23.820312 17.855469 23.960938 17.882812 24.105469 17.882812 Z M 24.105469 17.882812 " fill-opacity="1" fill-rule="nonzero"/><path fill="#000000" d="M 42.601562 8.128906 C 42.730469 8.199219 42.863281 8.246094 43.011719 8.265625 C 43.15625 8.285156 43.296875 8.273438 43.441406 8.238281 C 43.582031 8.199219 43.710938 8.136719 43.828125 8.046875 C 43.941406 7.957031 44.035156 7.851562 44.109375 7.722656 L 45.300781 5.667969 C 45.371094 5.542969 45.417969 5.40625 45.4375 5.261719 C 45.457031 5.117188 45.445312 4.972656 45.410156 4.832031 C 45.371094 4.691406 45.308594 4.5625 45.21875 4.445312 C 45.128906 4.332031 45.019531 4.238281 44.894531 4.164062 C 44.769531 4.089844 44.632812 4.042969 44.488281 4.023438 C 44.34375 4.007812 44.199219 4.015625 44.058594 4.054688 C 43.914062 4.089844 43.789062 4.15625 43.671875 4.242188 C 43.554688 4.332031 43.460938 4.441406 43.386719 4.566406 L 42.199219 6.621094 C 42.125 6.75 42.078125 6.882812 42.058594 7.027344 C 42.039062 7.175781 42.050781 7.316406 42.089844 7.457031 C 42.125 7.597656 42.1875 7.726562 42.277344 7.84375 C 42.367188 7.960938 42.476562 8.054688 42.601562 8.128906 Z M 42.601562 8.128906 " fill-opacity="1" fill-rule="nonzero"/><path fill="#000000" d="M 31.085938 7.722656 C 31.15625 7.851562 31.253906 7.957031 31.367188 8.046875 C 31.484375 8.136719 31.613281 8.199219 31.753906 8.238281 C 31.894531 8.273438 32.039062 8.285156 32.183594 8.265625 C 32.328125 8.246094 32.464844 8.199219 32.59375 8.125 C 32.71875 8.054688 32.828125 7.960938 32.917969 7.84375 C 33.003906 7.726562 33.070312 7.597656 33.105469 7.457031 C 33.144531 7.316406 33.152344 7.175781 33.136719 7.027344 C 33.117188 6.882812 33.070312 6.75 32.996094 6.621094 L 31.808594 4.566406 C 31.734375 4.441406 31.640625 4.332031 31.523438 4.242188 C 31.40625 4.15625 31.277344 4.089844 31.136719 4.054688 C 30.996094 4.015625 30.851562 4.007812 30.707031 4.023438 C 30.5625 4.042969 30.425781 4.089844 30.300781 4.164062 C 30.171875 4.238281 30.066406 4.332031 29.976562 4.445312 C 29.886719 4.5625 29.824219 4.691406 29.785156 4.832031 C 29.75 4.972656 29.738281 5.117188 29.757812 5.261719 C 29.777344 5.40625 29.824219 5.542969 29.894531 5.667969 Z M 31.085938 7.722656 " fill-opacity="1" fill-rule="nonzero"/></svg>