<?xml version="1.0" encoding="utf-8"?>
<!-- Generator: Adobe Illustrator 25.2.3, SVG Export Plug-In . SVG Version: 6.00 Build 0)  -->
<svg version="1.1" id="Calque_1" xmlns="http://www.w3.org/2000/svg" xmlns:xlink="http://www.w3.org/1999/xlink" x="0px" y="0px"
	 viewBox="0 0 700 700" style="enable-background:new 0 0 700 700;" xml:space="preserve">
<g>
	<path d="M36.2,573.8c128,43.6,257.5,43.6,385.5,0c-4.2-102.7-90.1-184.3-192.8-184.3C126.3,389.5,40.4,471.1,36.2,573.8L36.2,573.8
		z M229,129.2c70.4,0,128,57.7,128,129.4c0,49.2-28.1,92.9-70.4,114c91.5,25.3,159,109.8,159,209.6c0,4.2-2.8,9.8-8.4,11.3
		c-137.9,47.8-278.6,49.2-416.5,0c-4.2-1.4-8.4-5.6-8.4-11.3c0-99.9,67.5-184.3,160.4-209.6c-42.2-21.1-71.8-64.7-71.8-114
		C101,186.9,158.6,129.2,229,129.2L229,129.2z M229,153.1c-57.7,0-104.1,47.8-104.1,105.5S171.3,362.8,229,362.8
		s104.1-46.4,104.1-104.1S286.7,153.1,229,153.1z"/>
	<path d="M471,524.6c-5.6-1.4-11.3-5.6-11.3-12.7s5.6-11.3,12.7-11.3c64.7,1.4,129.5-8.4,191.4-29.5
		c-4.2-91.5-80.2-164.6-173.1-164.6c-40.8,0-78.8,14.1-109.8,39.4c-5.6,4.2-12.7,4.2-16.9-1.4c-4.2-4.2-4.2-12.7,1.4-16.9
		c21.1-16.9,45-29.5,70.4-36.6c-38-21.1-61.9-60.5-61.9-104.1c0-64.7,52.1-116.8,116.8-116.8c64.7,0,116.8,52.1,116.8,116.8
		c0,43.6-23.9,83-61.9,104.1c83,23.9,142.1,101.3,142.1,188.5c0,5.6-2.8,9.8-8.4,11.3C611.7,514.7,542.8,526,471,524.6L471,524.6z
		 M490.7,94c-52.1,0-92.9,42.2-92.9,92.9c0,52.1,40.8,92.9,92.9,92.9c50.7,0,92.9-40.8,92.9-92.9C583.6,136.2,541.3,94,490.7,94z"/>
</g>
</svg>
